<mxfile host="app.diagrams.net" modified="2023-10-17T15:12:01.010Z" agent="Mozilla/5.0 (X11; Linux x86_64) AppleWebKit/537.36 (KHTML, like Gecko) Chrome/117.0.0.0 Safari/537.36" version="22.0.4" etag="H8rxZTX8diCm4qtTAuSz" type="github">
  <diagram name="Page-1" id="GnxkV7bNmk6tipJM2uC0">
    <mxGraphModel>
      <root>
        <mxCell id="0" />
        <mxCell id="1" parent="0" />
      </root>
    </mxGraphModel>
  </diagram>
</mxfile>
